<?xml version="1.0" encoding="utf-8"?>
<!-- Generator: Adobe Illustrator 22.0.1, SVG Export Plug-In . SVG Version: 6.00 Build 0)  -->
<svg version="1.1" id="Layer_1" xmlns="http://www.w3.org/2000/svg" xmlns:xlink="http://www.w3.org/1999/xlink" x="0px" y="0px"
	 viewBox="0 0 123.3 120.4" style="enable-background:new 0 0 123.3 120.4;" xml:space="preserve">
<style type="text/css">
	.st0{fill:#434137;}
	.st1{fill:#434137;stroke:#FFCE04;stroke-width:0.2268;stroke-miterlimit:10;}
	.st2{font-family:'Roboto-Regular';}
	.st3{font-size:24.177px;}
	.st4{font-family:'Roboto-Black';}
</style>
<g>
	<g id="Layer_2_1_">
		<polygon class="st0" points="0,60.2 5.6,58.4 5.6,52.7 9.1,57.3 14.6,55.6 11.2,60.2 14.6,64.8 9.1,63.1 5.6,67.7 5.6,61.9 		"/>
		<polygon class="st0" points="7.3,86.8 12.9,85.1 12.9,79.4 16.4,84 21.9,82.2 18.5,86.8 21.9,91.5 16.4,89.8 12.9,94.3 12.9,88.6 
					"/>
		<polygon class="st0" points="27.4,106.4 33,104.6 33,98.9 36.5,103.5 42,101.7 38.6,106.4 42,111 36.5,109.3 33,113.9 33,108.2 		
			"/>
		<polygon class="st0" points="7.4,33.5 13,31.7 13,26 16.5,30.7 22,28.9 18.6,33.5 22,38.2 16.5,36.4 13,41 13,35.3 		"/>
		<polygon class="st0" points="32.6,7.3 36.1,11.9 41.6,10.2 38.1,14.8 41.6,19.4 36.1,17.7 32.6,22.3 32.6,16.6 27,14.9 32.6,13.1 
					"/>
		<polygon class="st0" points="60.2,0 63.6,4.6 69.1,2.8 65.7,7.5 69.1,12.1 63.6,10.3 60.1,15 60.1,9.3 54.5,7.5 60.1,5.7 		"/>
		<polygon class="st0" points="95.7,9.8 92.2,14.4 95.7,19 90.1,17.2 86.6,21.9 86.6,16.2 81,14.4 86.6,12.6 86.6,6.9 90,11.6 		"/>
		<polygon class="st0" points="123.3,64.3 117.7,62.6 114.2,67.2 114.2,61.5 108.6,59.8 114.2,58 114.2,52.3 117.7,56.8 123.3,55.1 
			119.9,59.8 		"/>
		<polygon class="st1" points="116,91 110.4,89.3 107,93.9 107,88.2 101.3,86.5 107,84.7 106.9,79 110.4,83.6 116,81.8 112.5,86.5 
					"/>
		<polygon class="st0" points="115.8,29.3 112.4,33.9 115.8,38.5 110.2,36.7 106.8,41.4 106.8,35.6 101.2,33.9 106.8,32.1 
			106.8,26.4 110.3,31.1 		"/>
		<polygon class="st0" points="60.3,120.4 60.3,114.7 54.6,112.9 60.3,111.1 60.2,105.4 63.7,110 69.2,108.2 65.8,112.9 69.3,117.5 
			63.7,115.7 		"/>
		<polygon class="st0" points="95.7,110.6 90,108.8 86.6,113.5 86.6,107.8 80.9,106 86.6,104.2 86.6,98.5 90,103.1 95.7,101.3 
			92.2,106 		"/>
		<text transform="matrix(1.0296 0 0 1 44.7809 56.1834)" class="st0 st2 st3">WP</text>
		<text transform="matrix(1.0296 0 0 1 31.7897 78.1707)" class="st0 st4 st3">GDPR</text>
	</g>
	<g id="Laag_3">
		<polygon class="st0" points="94,58.7 32.7,58.7 32.2,58.5 93.5,58.5 		"/>
	</g>
</g>
</svg>
